<svg version="1.1" xmlns="http://www.w3.org/2000/svg" xmlns:xlink="http://www.w3.org/1999/xlink" viewBox="0 0 172 172"><g fill="none" fill-rule="nonzero" stroke="none" stroke-width="1" stroke-linecap="butt" stroke-linejoin="miter" stroke-miterlimit="10" stroke-dasharray="" stroke-dashoffset="0" font-family="none" font-weight="none" font-size="none" text-anchor="none" style="mix-blend-mode: normal"><path d="M0,172v-172h172v172z" fill="none"></path><g><path d="M129,129h-83.82492c-4.76942,0 -5.75842,4.00975 -5.75842,8.95833c0,4.95217 0.989,8.96192 5.75842,8.96192l83.82492,-0.00358z" fill="#ffe0b2"></path><path d="M35.83333,129h93.16667v7.16667h-93.16667z" fill="#e0b990"></path><path d="M139.75,107.5h-10.75v39.41667c0,0 3.58333,0 7.16667,0c3.58333,0 3.58333,-3.58333 3.58333,-3.58333z" fill="#b71c1c"></path><path d="M136.16667,146.91667c-3.58333,0 -7.16667,0 -7.16667,0v7.16667c0.67367,0 1.79167,0 3.58333,0c7.16667,0 7.16667,-7.16667 7.16667,-7.16667v-3.58333c0,0 0,3.58333 -3.58333,3.58333zM35.83333,129h100.33333c1.98158,0 3.58333,-1.60175 3.58333,-3.57975v-107.5c0,-1.978 -1.60175,-3.58333 -3.58333,-3.58333l-86,-0.00358c-7.90842,0 -17.25733,3.827 -17.85933,21.50358h-0.05733c0,0 0,74.61575 0,103.91308z" fill="#e53935"></path><path d="M129,146.91667h-83.82492c-4.773,0 -5.75842,-3.99183 -5.75842,-8.96192c0,-4.94858 0.989,-8.95833 5.75842,-8.95833h83.82492v-7.16667h-83.82492c-3.88433,0 -12.92508,1.5695 -12.92508,16.125c0,14.55908 9.04075,16.12858 12.92508,16.12858l83.82492,-0.00358z" fill="#e53935"></path><g fill="#ffc107"><path d="M121.83333,32.25v78.83333h-64.5v-78.83333h64.5M129,25.08333h-78.83333v93.16667h78.83333v-93.16667z"></path><path d="M75.02783,57.11117h28.55558v28.66667h-28.55558z"></path><path d="M96.63892,89.58333c0,1.98158 -1.60175,3.58333 -3.58333,3.58333h-7.05558c-1.978,0 -3.58333,-1.60175 -3.58333,-3.58333v-35.83333c0,-1.98158 1.60533,-3.58333 3.58333,-3.58333h7.05558c1.98158,0 3.58333,1.60175 3.58333,3.58333z"></path><path d="M110.98658,75.25c0,1.98158 -1.59458,3.58333 -3.56542,3.58333h-35.7545c-1.97083,0 -3.569,-1.60175 -3.569,-3.58333l0.09675,-7.16667c0,-1.98158 1.59817,-3.58333 3.569,-3.58333h35.75092c1.97442,0 3.569,1.60175 3.569,3.58333zM82.41667,42.99283c0,-3.956 7.16667,-7.16667 7.16667,-7.16667c0,0 7.16667,3.21067 7.16667,7.16667c0,3.956 -3.21067,3.58333 -7.16667,3.58333c-3.956,0 -7.16667,0.37625 -7.16667,-3.58333zM82.41667,100.33333c0,3.956 7.16667,7.16667 7.16667,7.16667c0,0 7.16667,-3.21067 7.16667,-7.16667c0,-3.956 -3.21067,-3.58333 -7.16667,-3.58333c-3.956,0 -7.16667,-0.37267 -7.16667,3.58333z"></path></g></g></g></svg>